2.2Hz3min_grf.mot
version=1
nRows=27
nColumns 19
inDegrees=yes
endheader
time	1_ground_force_vx	1_ground_force_vy	1_ground_force_vz	1_ground_force_px	1_ground_force_py	1_ground_force_pz	1_ground_torque_x	1_ground_torque_y	1_ground_torque_z	2_ground_force_vx	2_ground_force_vy	2_ground_force_vz	2_ground_force_px	2_ground_force_py	2_ground_force_pz	2_ground_torque_x	2_ground_torque_y	2_ground_torque_z
            3.751500	          -21.076749	          818.938701	          -79.529464	           -0.294743	            0.006292	           -0.423980	           -0.083728	            3.253272	           -0.315934	            4.905590	          855.882585	           73.631147	           -0.296236	            0.005459	           -0.710277	           -0.022622	           -3.946887	           -0.339549
            3.752000	          -21.119638	          813.347144	          -78.773765	           -0.294529	            0.006291	           -0.423848	           -0.077845	            2.997903	           -0.290351	            5.162149	          849.624746	           72.951714	           -0.296157	            0.005459	           -0.710033	           -0.023765	           -3.911347	           -0.335842
            3.752500	          -20.521570	          808.658128	          -78.290923	           -0.294416	            0.006290	           -0.423659	           -0.074666	            2.942236	           -0.284855	            5.598899	          845.392356	           72.514077	           -0.295889	            0.005460	           -0.710104	           -0.025004	           -3.775483	           -0.323844
            3.753000	          -20.197698	          802.345776	          -77.585078	           -0.294290	            0.006291	           -0.423708	           -0.074720	            2.968211	           -0.287020	            5.995199	          839.320275	           71.506737	           -0.295867	            0.005460	           -0.710106	           -0.026300	           -3.681990	           -0.313691
            3.753500	          -19.919699	          796.213590	          -76.878347	           -0.294166	            0.006291	           -0.423839	           -0.076535	            3.059195	           -0.295380	            6.388964	          833.983876	           70.783609	           -0.295846	            0.005460	           -0.710083	           -0.028210	           -3.682334	           -0.312535
            3.754000	          -19.642027	          790.622685	          -76.261016	           -0.293927	            0.006291	           -0.423832	           -0.073650	            2.964546	           -0.285951	            6.547108	          829.015247	           69.968023	           -0.295561	            0.005461	           -0.710021	           -0.028000	           -3.545414	           -0.299229
            3.754500	          -19.318005	          784.129841	          -75.510077	           -0.293949	            0.006291	           -0.423866	           -0.069591	            2.824762	           -0.272019	            6.707350	          823.493298	           69.385115	           -0.295420	            0.005462	           -0.710127	           -0.028413	           -3.488383	           -0.293921
            3.755000	          -19.178678	          779.261152	          -75.164441	           -0.293632	            0.006291	           -0.423718	           -0.066956	            2.720512	           -0.262410	            7.151267	          817.236470	           68.611746	           -0.295398	            0.005461	           -0.709919	           -0.030489	           -3.484257	           -0.292524
            3.755500	          -18.808620	          772.948219	          -74.321154	           -0.293688	            0.006292	           -0.423900	           -0.062179	            2.555262	           -0.245696	            7.355741	          812.450919	           68.125301	           -0.295242	            0.005461	           -0.709907	           -0.031054	           -3.429986	           -0.287610
            3.756000	          -18.530543	          768.257568	          -73.470668	           -0.293463	            0.006291	           -0.423683	           -0.060052	            2.489707	           -0.238098	            7.517333	          806.560521	           67.588014	           -0.295238	            0.005461	           -0.709726	           -0.031667	           -3.397610	           -0.284712
            3.756500	          -17.839776	          761.764794	          -72.720655	           -0.293438	            0.006291	           -0.423820	           -0.059179	            2.526976	           -0.241234	            8.006126	          800.856178	           66.863517	           -0.294966	            0.005462	           -0.709782	           -0.033261	           -3.327142	           -0.277783
            3.757000	          -17.791534	          756.714808	          -72.146273	           -0.293261	            0.006291	           -0.423674	           -0.060022	            2.552884	           -0.243396	            8.070674	          795.886374	           66.282619	           -0.294821	            0.005463	           -0.709905	           -0.033045	           -3.258741	           -0.271393
            3.757500	          -17.421913	          749.681796	          -71.535354	           -0.293080	            0.006292	           -0.423916	           -0.058173	            2.503239	           -0.238862	            8.183922	          790.365427	           65.371234	           -0.294649	            0.005463	           -0.709872	           -0.032884	           -3.175826	           -0.262673
            3.758000	          -17.144228	          745.892897	          -70.772722	           -0.293031	            0.006289	           -0.423366	           -0.054693	            2.379521	           -0.225777	            8.627154	          784.292847	           64.551593	           -0.294558	            0.005463	           -0.709658	           -0.034822	           -3.165644	           -0.260550
            3.758500	          -16.819993	          738.859090	          -69.978250	           -0.292834	            0.006291	           -0.423698	           -0.051301	            2.253506	           -0.213432	            8.927280	          778.955607	           63.969282	           -0.294576	            0.005463	           -0.709653	           -0.036074	           -3.147687	           -0.258494
            3.759000	          -16.587969	          732.186521	          -69.365443	           -0.292744	            0.006292	           -0.424065	           -0.047220	            2.084260	           -0.197457	            8.713284	          773.249062	           63.151235	           -0.294388	            0.005463	           -0.709489	           -0.034582	           -3.068916	           -0.250638
            3.759500	          -16.034928	          726.775376	          -68.610435	           -0.292690	            0.006291	           -0.423803	           -0.045597	            2.066672	           -0.195102	            9.152591	          768.280824	           62.476322	           -0.294021	            0.005465	           -0.709614	           -0.034843	           -2.924737	           -0.237839
            3.760000	          -15.849137	          721.004550	          -68.085354	           -0.292493	            0.006292	           -0.423926	           -0.046670	            2.123113	           -0.200488	            9.268120	          762.205173	           62.219959	           -0.294023	            0.005464	           -0.709463	           -0.034863	           -2.867123	           -0.234048
            3.760500	          -15.708880	          715.413300	          -67.421830	           -0.292373	            0.006291	           -0.423788	           -0.045895	            2.090164	           -0.196981	            9.524035	          756.131246	           61.588110	           -0.294050	            0.005464	           -0.709410	           -0.035676	           -2.832424	           -0.230706
            3.761000	          -15.109835	          709.100805	          -66.670801	           -0.292228	            0.006292	           -0.423945	           -0.044257	            2.076958	           -0.195279	            9.915161	          751.531242	           60.914531	           -0.293827	            0.005466	           -0.709652	           -0.037610	           -2.850677	           -0.231058
            3.761500	          -14.832031	          702.788838	          -66.056562	           -0.292201	            0.006293	           -0.424082	           -0.040229	            1.906178	           -0.179166	            9.705236	          744.719061	           60.280254	           -0.293894	            0.005464	           -0.709322	           -0.035894	           -2.754251	           -0.222939
            3.762000	          -14.782876	          697.737279	          -65.115348	           -0.292136	            0.006291	           -0.423682	           -0.036834	            1.738537	           -0.162247	           10.050362	          739.933302	           60.028391	           -0.293628	            0.005465	           -0.709307	           -0.037691	           -2.774915	           -0.225120
            3.762500	          -14.092114	          692.505941	          -64.268205	           -0.291944	            0.006292	           -0.423816	           -0.034894	            1.714756	           -0.159138	           10.022334	          734.596430	           58.976938	           -0.293350	            0.005466	           -0.709346	           -0.035664	           -2.613995	           -0.209864
            3.763000	          -13.860657	          685.834356	          -63.884674	           -0.291849	            0.006292	           -0.424008	           -0.033460	            1.655604	           -0.154218	           10.231419	          728.522289	           58.392038	           -0.293269	            0.005466	           -0.709186	           -0.036123	           -2.572091	           -0.206157
            3.763500	          -13.352616	          680.782099	          -62.761159	           -0.291612	            0.006291	           -0.423756	           -0.033136	            1.689452	           -0.155750	           10.485442	          723.000009	           57.996802	           -0.293371	            0.005466	           -0.709354	           -0.037169	           -2.562895	           -0.205587
            3.764000	          -13.075448	          674.831707	          -62.374650	           -0.291552	            0.006292	           -0.423910	           -0.032339	            1.669056	           -0.154271	           10.694405	          716.926750	           57.130333	           -0.293241	            0.005466	           -0.709112	           -0.037186	           -2.492886	           -0.198653
            3.764500	          -12.522931	          669.781819	          -61.801535	           -0.291332	            0.006290	           -0.423435	           -0.031796	            1.700573	           -0.156914	           10.810475	          710.667901	           56.591744	           -0.293198	            0.005466	           -0.708994	           -0.037465	           -2.462900	           -0.196125
